<?xml version="1.0" encoding="utf-8"?>
<!-- Generator: Adobe Illustrator 21.1.0, SVG Export Plug-In . SVG Version: 6.00 Build 0)  -->
<svg version="1.1" id="Capa_1" xmlns="http://www.w3.org/2000/svg" xmlns:xlink="http://www.w3.org/1999/xlink" x="0px" y="0px"
	 viewBox="0 0 595.3 209.6" style="enable-background:new 0 0 595.3 209.6;" xml:space="preserve">
<style type="text/css">
	.st0{fill:#E75013;}
</style>
<g>
	<path class="st0" d="M158,135.9v57.7h28.8v-38.7C175.2,151.8,165.2,145.1,158,135.9 M18.4,193.6h32.3V16.7H18.4V193.6z M254.9,96.2
		c-0.1-0.7-0.2-1.4-0.3-2.1C254.7,94.8,254.8,95.5,254.9,96.2 M254.2,91.8c-0.1-0.4-0.1-0.7-0.2-1.1
		C254.1,91.1,254.1,91.5,254.2,91.8 M263.4,141.7c0,18.4-3,26.1-22.4,26.1v-28.8c0,0,0,0,0,0c-0.3-0.8-0.7-1.7-1-2.3
		c-0.9-1.9-1.7-3.7-2.7-5.3c-0.3-0.6-0.7-1.1-1.1-1.7c-0.3-0.5-0.6-0.9-0.9-1.4c-0.5-0.9-1.1-1.8-1.8-2.7l-0.5-0.7
		c-0.2-0.3-0.4-0.6-0.7-0.9c-0.2-0.3-0.4-0.6-0.7-0.9l-1.3-1.8c-0.8-1.2-1.7-2.4-2.6-3.6l-0.1-0.2c-1.7-2.3-3.8-4.9-6.3-7.9
		c-2.6-3.1-4.8-5.7-7-8.1c-2.5-2.8-5-5.5-7.5-8.1l-1.9-2c-4.4-4.7-8.6-9.1-13.1-13.3c-2.1-1.9-4.9-4.4-7.6-6.6
		c-1.7-1.4-3.2-2.5-4.7-3.6c1.1-0.9,2.2-1.9,3.3-2.8c0.5-0.4,1-0.8,1.5-1.1l0.9-0.7c0.5-0.4,1.1-0.8,1.6-1.1l0.6-0.4
		c0.2,0.1,0.3,0.2,0.5,0.3l0.2,0.1c0.2,0.2,0.5,0.3,0.7,0.4l0.3,0.2c0.2,0.1,0.4,0.2,0.7,0.4l1.9,1c2.5,1.2,5.4,2.4,8.5,3.4
		c3.3,1,6.6,2,9.2,2.7l1.9,0.5c2.5,0.7,5,1.4,7.5,2.2c2.8,0.9,6.1,1.9,9.2,3c3,1.1,5.8,2.4,8.4,3.6l2,1.1l3.7,2.2
		c0.3,0.2,0.6,0.3,0.8,0.5l0.8,0.6c1.9,1.4,3.8,3,5.6,5l1.1,1.3c0.2,0.3,0.4,0.6,0.6,0.8l0.5,0.8c0.1,0.1,0.2,0.2,0.2,0.4l0.4,0.6
		c0.1,0.2,0.2,0.3,0.3,0.5c0.2,0.3,0.3,0.5,0.5,0.8c0.9,1.7,1.5,3.4,1.8,4.5c0.1,0.4,0.2,0.8,0.3,1.1c0-0.9-0.1-1.8-0.2-2.8
		c0.2,2.3,0.4,4.6,0.3,7c-0.1,5-1,9.9-2.4,14.5C261.2,121.7,263.4,129.8,263.4,141.7 M261.4,65.9c0,10.9-2,17.8-8.4,21.1
		c0,0,0,0,0,0.1c-0.2-0.2-0.3-0.5-0.5-0.7c-1.9-2.3-3.9-4.2-6-5.8l-0.9-0.7c-0.3-0.2-0.6-0.5-0.9-0.7l-1.9-1.3l-4-2.3
		c-3.4-1.7-6.2-3-8.9-4c-1.1-0.5-2.3-0.9-3.4-1.3l-1.3-0.4c-1.6-0.5-3.2-1-4.8-1.5c-2.5-0.8-5.1-1.5-7.5-2.1l-2-0.5
		c-2.5-0.7-5.9-1.6-9-2.6c-3.3-1-5.8-2-8-3l-1-0.5l-1.1-0.6c0.4-0.2,0.7-0.5,1.1-0.7l3.8-1.9l4.2-1.8c0.3-0.1,0.5-0.2,0.7-0.3
		l3.7-1.2c0.3-0.1,0.5-0.1,0.8-0.2l0.2,0c0.5-0.1,1-0.2,1.5-0.4l4.7-0.8c0.5-0.1,1.1-0.1,1.6-0.2l0.6,0c0.3,0,0.5,0,0.8-0.1
		c0.4,0,0.9-0.1,1.3-0.1l2.4,0c0.2,0,0.4,0,0.6,0l0.1,0c8.2,3.1,15.4,8,21.2,14.3V42.5C257.2,42.3,261.4,45.8,261.4,65.9
		 M219.4,51.2c-1.3-0.5-2.6-0.9-4-1.3C216.8,50.3,218.1,50.7,219.4,51.2 M214.2,49.6c-1.6-0.4-3.3-0.8-5-1
		C210.9,48.8,212.6,49.2,214.2,49.6 M182.1,51.2c1.4-0.5,2.9-1,4.4-1.4C185,50.2,183.6,50.7,182.1,51.2 M163.9,62.3
		c0.7-0.6,1.3-1.2,2-1.7C165.3,61.1,164.6,61.7,163.9,62.3 M166.9,59.7c4.5-3.6,9.5-6.4,14.9-8.4c-0.1,0.5-0.2,0.9-0.2,1.2
		c0,1,0.5,3,0.9,4c0.3,0.7,0.9,1.6,1.6,2.5c-0.4,0.3-0.7,0.5-1.1,0.8l-0.9,0.6c-0.6,0.4-1.1,0.8-1.7,1.3c-1.4,1.1-2.8,2.3-4.2,3.5
		c-2-1.4-4-2.7-5.7-3.6C169.4,60.9,168.1,60.3,166.9,59.7 M263.4,101.4v-0.5c19.9-4.2,28.8-19.6,28.8-39.5
		c0-33.8-23.9-44.7-43.7-44.7h-39.8v31.8c0.1,0,0.1,0,0.2,0l-2,0.3c-0.3,0.1-0.6,0.1-0.9,0.2c-0.6,0.1-1.2,0.2-1.8,0.4l-4,1.2
		c-0.3,0.1-0.6,0.2-0.9,0.3l-3.9,1.5l-4.7,2.3c-1,0.6-2,1.2-3.1,1.8c0,0,0,0,0,0c-0.8-0.7-1.4-1.6-1.6-2.2c-0.2-0.5-0.5-1.6-0.5-2
		c0-0.9,0.5-1.9,1-2.7c0,0,0,0,0.1,0v-33h-42l-15.2,90.7h-0.5l-14.4-90.7h-43v176.9h23.9V63.9h0.5l21.6,129.7h17.9l12.8-76.2
		c-1.5-5.3-2.3-10.8-2.1-16.6c0.4-15,6.9-28.5,17.1-38c1.3,0.6,2.8,1.5,4.8,2.7c1.3,0.8,2.7,1.8,4.5,3.1c-0.6,0.6-1.2,1.1-1.8,1.7
		c-2.1,2.2-4.1,4.5-6,7c-1.1-0.8-2.3-1.5-3.5-1.9c-1-0.3-1.8-0.5-2.5-0.6c-0.4-0.1-0.8-0.1-1.5-0.1c-0.1,0-0.2,0-0.2,0l-0.8,0
		c-1,0.1-2,0.3-3,0.6c-1.2,2.1-2.2,4.3-3.1,6.6c0.2-0.2,0.4-0.4,0.7-0.6l0.4-0.2c0.3-0.2,0.6-0.4,0.9-0.5l1.4-0.6
		c0.3-0.2,0.7-0.2,1-0.3c0.1,0,0.3-0.1,0.5-0.1c0.1-0.1,0.3-0.1,0.5-0.1l0.9-0.1l0,0l0.1,0l0-0.2l0,0.2l0,0v0l0.7,0l0-0.4l0.2,0.5
		l0.1,0c0.2,0,0.4,0,0.6,0.1c0.5,0.1,1,0.2,1.6,0.4c0.8,0.3,1.6,0.7,2.3,1.3c-2.2,3.2-4.3,6.4-6,9.8c-3.6,6.9-6.1,14.1-7.2,20.9
		c-0.3,1.9-0.5,3.8-0.6,5.7c1.1,3.7,2.6,7.3,4.4,10.6l-0.2-1.1c-0.3-1.8-0.5-4-0.5-6.3c0-2.7,0.3-5.5,0.8-8.2
		c0.6-3.2,1.4-6.4,2.5-9.5c1.2-3.4,2.7-6.8,4.4-10.1c1.6-3,3.5-6,5.5-8.9c1.1,1.3,2.2,2.9,3.2,4.7c1.4,2.8,2.6,5.9,3.4,9.2
		c0.4,1.6,0.7,3.3,0.9,5c0.2,1.8,0.5,3.6,0.8,5.4c0.5,3.2,1.1,6.6,2,10.7c0.8,3.5,1.6,7,2.5,10.2c0.9,3.4,1.9,6.5,3,9.4
		c1,2.8,2.2,5.6,3.5,8.2c1.3,2.5,2.6,4.7,3.9,6.6c0.7,0.9,1.4,1.7,2.1,2.5c2.3,0.4,4.6,0.7,7,0.9l-0.4-0.3c-0.2-0.1-0.4-0.2-0.5-0.3
		l-0.7-0.5l-0.8-0.6c-1.1-1-2.3-2.3-3.4-3.9c-1.2-1.7-2.3-3.8-3.4-6.1c-1-2.1-2-4.7-3.1-7.9c-1-2.8-1.9-5.9-2.8-9.1
		c-0.8-3.2-1.6-6.6-2.3-10c-0.6-3.1-1.2-6.5-1.9-10.4c-0.3-1.8-0.5-3.5-0.8-5.3c-0.2-1.9-0.6-3.7-1-5.5c-0.9-3.8-2.2-7.2-3.8-10.3
		c-1.4-2.5-2.8-4.6-4.5-6.4c1.8-2.4,3.8-4.7,5.8-6.8c0.7-0.7,1.4-1.4,2.1-2c1.7,1.3,3.4,2.7,5.1,4.1c2.7,2.3,5.1,4.5,7.4,6.5
		c4.5,4.2,8.8,8.6,13.3,13.3l1.5,1.6c2.5,2.6,5,5.3,7.5,8l1.3,1.5c2,2.2,3.9,4.3,5.7,6.4c2.4,2.8,4.5,5.3,6.2,7.6l0.2,0.3
		c0.9,1.1,1.7,2.2,2.5,3.3c0.3,0.4,0.7,0.9,1,1.3c0.6,0.7,1.1,1.5,1.6,2.2l0.5,0.6c0.6,0.9,1.3,1.8,1.8,2.6c0.3,0.5,0.6,0.9,0.9,1.4
		c0.4,0.5,0.7,1.1,1,1.6c1.2,2,2.1,3.8,2.7,5c0.6,1.2,1.3,2.7,1.6,3.7c-7.9,7.4-18,12.4-29.2,14.1v37.5H250
		c23.9,0,45.7-16.9,45.7-49.2C295.7,122,285.5,106.6,263.4,101.4 M355.2,128.5H335L345.2,44h0.5L355.2,128.5z M393.7,193.6
		L371.8,16.7h-46.7l-24.8,176.9h27.1l4.5-39.3h26.1l4.7,39.3H393.7z"/>
	<path class="st0" d="M407.3,116l1.5-9.7h0.1l1.5,9.7H407.3z M415.5,124.4l-4.2-22.6h-4.8l-4.2,22.6h3.8l0.7-5h4.3l0.7,5H415.5z
		 M409.2,76.7c1.7,0,2.5,1.1,2.5,3.2c0,1.9-1.1,2.9-2.6,2.9h-1.4v-6.1H409.2z M409,86c2.3,0,3.2,1.2,3.2,3.5c0,2.3-0.8,3.5-2.8,3.5
		h-1.6v-7H409z M409.6,73.5h-5.8v22.6h6.1c4.4,0,6.1-2.8,6.1-6.6c0-2.9-1.2-4.5-3.1-5.4c1.9-0.8,2.7-2.8,2.7-4.7
		C415.6,75.7,413.8,73.5,409.6,73.5 M423.4,87.8l1.5-9.7h0.1l1.5,9.7H423.4z M431.5,96.2l-4.2-22.6h-4.8l-4.2,22.6h3.8l0.7-5h4.3
		l0.7,5H431.5z M419.4,67.9V45.3h-5.1l-2.8,13.2h-0.1l-2.8-13.2h-5.1v22.6h3.4V50.2h0.1l3.5,17.7h1.9l3.5-17.7h0.1v17.7H419.4z
		 M427.3,59.5l1.5-9.7h0.1l1.5,9.7H427.3z M435.4,67.9l-4.2-22.6h-4.8l-4.2,22.6h3.8l0.7-5h4.3l0.7,5H435.4z M450.2,67.9V45.3h-3.5
		v12.9h-0.1l-4.7-12.9h-3.6v22.6h3.5V53.8h0.1l5,14.1H450.2z M459.3,48.5c2.1,0,2.9,0.8,2.9,3.5c0,2.7-0.8,3.5-2.9,3.5h-1.4v-7
		H459.3z M459.5,45.3H454v22.6h3.9v-9.3c0.7,0,1.5,0,2-0.1l2.8,9.4h3.9l-3.3-10.2c1.3-0.6,2.7-2.1,2.7-5.7
		C466.1,47.1,463.8,45.3,459.5,45.3 M480.4,48.7v-3.4H470v22.6h10.8v-3.4h-7v-6.6h5v-3.4h-5v-5.8H480.4z M408.2,17h-3.9v22.6h3.9V17
		z M424.2,39.6V17h-3.5V30h-0.1L415.9,17h-3.6v22.6h3.5V25.5h0.1l5,14.1H424.2z M438.5,20.4V17h-11.4v3.4h3.8v19.2h3.9V20.4H438.5z
		 M451.8,20.4V17h-10.4v22.6h10.8v-3.4h-7v-6.6h5v-3.4h-5v-5.8H451.8z M460.9,20.2c2.1,0,2.9,0.8,2.9,3.5c0,2.7-0.8,3.5-2.9,3.5
		h-1.4v-7H460.9z M461.1,17h-5.5v22.6h3.9v-9.3c0.7,0,1.5,0,2-0.1l2.8,9.4h3.9l-3.3-10.2c1.3-0.6,2.7-2.1,2.7-5.7
		C467.6,18.9,465.4,17,461.1,17 M483.4,39.6V17h-3.5V30h-0.1L475.1,17h-3.6v22.6h3.5V25.5h0.1l5,14.1H483.4z M491.4,31.2l1.5-9.7
		h0.1l1.5,9.7H491.4z M499.5,39.6L495.4,17h-4.8l-4.2,22.6h3.8l0.7-5h4.3l0.7,5H499.5z M511.4,20.4V17H500v3.4h3.8v19.2h3.9V20.4
		H511.4z M518.4,17h-3.9v22.6h3.9V17z M568.9,17v22.6h10v-3.4h-6.1V17H568.9z M559.5,21.5l1.5,9.7h-3.1L559.5,21.5L559.5,21.5z
		 M557,17l-4.2,22.6h3.8l0.7-5h4.3l0.7,5h3.8L561.9,17H557z M538,17v22.6h3.5V25.5h0.1l5,14.1h3.4V17h-3.5V30h-0.1L541.6,17H538z
		 M528.4,36.6c-1.6,0-2.1-0.8-2.1-2.5V22.6c0-1.7,0.5-2.5,2.1-2.5s2.1,0.8,2.1,2.5v11.5C530.4,35.8,529.9,36.6,528.4,36.6
		 M528.4,39.9c4.1,0,6-2.6,6-5.8V22.5c0-3.2-1.9-5.8-6-5.8s-6,2.6-6,5.8v11.7C522.4,37.3,524.3,39.9,528.4,39.9 M504.1,49.8l1.5,9.7
		h-3.1L504.1,49.8L504.1,49.8z M501.7,45.3l-4.2,22.6h3.8l0.7-5h4.3l0.7,5h3.8l-4.2-22.6H501.7z M489.2,68.2c3.6,0,6.1-2.1,6.1-5.8
		c0-6.1-7.9-8-7.9-11.8c0-1.4,0.7-2.2,1.9-2.2c0.9,0,1.9,0.6,2.1,2.5l3.7-0.4c-0.3-3.2-2.2-5.5-5.4-5.5c-3.8,0-6,2-6,5.6
		c0,6.5,7.9,7.7,7.9,12.2c0,1.3-0.9,2.1-2.3,2.1c-1.3,0-2.2-1.1-2.3-3.4l-3.7,0.5C483.6,65.3,485.6,68.2,489.2,68.2 M534.7,73.5
		v22.6h10v-3.4h-6.1V73.5H534.7z M521.8,73.5v22.6h10v-3.4h-6.1V73.5H521.8z M512.4,78l1.5,9.7h-3.1L512.4,78L512.4,78z M510,73.5
		l-4.2,22.6h3.8l0.7-5h4.3l0.7,5h3.8l-4.2-22.6H510z M496.6,76.7c1.7,0,2.5,1.1,2.5,3.2c0,1.9-1.1,2.9-2.6,2.9h-1.4v-6.1H496.6z
		 M496.4,86c2.3,0,3.2,1.2,3.2,3.5c0,2.3-0.8,3.5-2.8,3.5h-1.6v-7H496.4z M491.3,73.5v22.6h6.1c4.4,0,6.1-2.8,6.1-6.6
		c0-2.9-1.2-4.5-3.1-5.4c1.9-0.8,2.7-2.8,2.7-4.7c0-3.9-1.8-6-6-6H491.3z M480.7,76.9v19.2h3.9V76.9h3.8v-3.4h-11.4v3.4H480.7z
		 M463.7,73.5v22.6h10.8v-3.4h-7v-6.6h5v-3.4h-5v-5.8h6.5v-3.4H463.7z M448.6,73.5v22.6h3.9v-8l1.4-2.5h0.1l3.2,10.5h3.9L456.3,82
		l4.2-8.4h-3.9l-4.1,8.4h-0.1v-8.4H448.6z M439.3,96.5c3.6,0,6.1-2.1,6.1-5.8c0-6.1-7.9-8-7.9-11.8c0-1.4,0.7-2.2,1.9-2.2
		c0.9,0,1.9,0.6,2.1,2.5l3.7-0.4c-0.3-3.2-2.2-5.5-5.4-5.5c-3.8,0-6,2-6,5.6c0,6.5,7.9,7.7,7.9,12.2c0,1.3-0.9,2.1-2.3,2.1
		c-1.3,0-2.2-1.1-2.3-3.4l-3.7,0.5C433.7,93.6,435.7,96.5,439.3,96.5 M424,101.5c-4.1,0-6,2.6-6,5.8v11.7c0,3.2,1.9,5.8,6,5.8
		c3.9,0,5.8-2.6,5.8-5.8v-2.6h-3.9v2.7c0,1.5-0.5,2.3-1.9,2.3c-1.6,0-2.1-0.8-2.1-2.5v-11.5c0-1.7,0.5-2.5,2.1-2.5
		c1,0,1.9,0.8,1.9,2.7v1.8h3.9v-1.7C429.7,104.3,427.9,101.5,424,101.5 M501.4,115v9.4h3.9V115l4.7-13.2H506l-2.6,8.6h-0.1l-2.7-8.6
		h-3.9L501.4,115z M478.1,101.8v22.6h3.4v-17.7h0.1l3.5,17.7h1.9l3.5-17.7h0.1v17.7h3.4v-22.6h-5.1L486,115H486l-2.8-13.2H478.1z
		 M464,101.8v22.6h10.8V121h-7v-6.6h5V111h-5v-5.8h6.5v-3.4H464z M453.7,105c2.1,0,2.8,0.8,2.8,3.2v9.9c0,2.4-0.7,3.2-2.8,3.2h-1.3
		V105H453.7z M448.5,101.8v22.6h5.8c4,0,6.1-2.2,6.1-6.8v-9c0-4.6-2.1-6.8-6.1-6.8H448.5z M439,106.3l1.5,9.7h-3.1L439,106.3
		L439,106.3z M436.5,101.8l-4.2,22.6h3.8l0.7-5h4.3l0.7,5h3.8l-4.2-22.6H436.5z"/>
</g>
</svg>
